<?xml version="1.0" encoding="UTF-8" standalone="no"?>
<svg xmlns:dc="http://purl.org/dc/elements/1.1/" xmlns:cc="http://creativecommons.org/ns#" xmlns:rdf="http://www.w3.org/1999/02/22-rdf-syntax-ns#" xmlns:svg="http://www.w3.org/2000/svg" xmlns="http://www.w3.org/2000/svg" xmlns:sodipodi="http://sodipodi.sourceforge.net/DTD/sodipodi-0.dtd" xmlns:inkscape="http://www.inkscape.org/namespaces/inkscape" version="1.2" viewBox="0 0 120 120" width="120" height="120" id="svg10108" inkscape:version="0.91 r13725" sodipodi:docname="ic_0.svg">
        <metadata id="metadata10115">
                <rdf:RDF>
                        <cc:Work rdf:about="">
                                <dc:format>image/svg+xml</dc:format>
                                <dc:type rdf:resource="http://purl.org/dc/dcmitype/StillImage" />
                                <dc:title></dc:title>
                        </cc:Work>
                </rdf:RDF>
        </metadata>
        <defs id="defs10113" />
        <sodipodi:namedview pagecolor="#ffffff" bordercolor="#666666" borderopacity="1" objecttolerance="10" gridtolerance="10" guidetolerance="10" inkscape:pageopacity="0" inkscape:pageshadow="2" inkscape:window-width="1598" inkscape:window-height="879" id="namedview10111" showgrid="false" inkscape:zoom="5.8333333" inkscape:cx="60" inkscape:cy="60" inkscape:window-x="0" inkscape:window-y="19" inkscape:window-maximized="0" inkscape:current-layer="svg10108" />
        <!-- copyright Melissa Steil <mst@pyneo.org> -->
        <g transform="matrix(0.10603829,0,0,0.10603828,-446.63918,-295.26358)" id="g4534">
                <path id="path4536" transform="matrix(13.472222,0,0,13.472224,4239,2811.4444)" style="fill:#ee9900;fill-opacity:0.5;stroke:none" d="M 40.000001,5 A 35.00044,35.000351 0 0 0 5,40 35.00044,35.000351 0 0 0 40.000001,75 35.00044,35.000351 0 0 0 75,40 35.00044,35.000351 0 0 0 40.000001,5 Z m 0.725908,55.999295 c -0.0196,0 -0.0399,7e-4 -0.0595,7e-4 l 0,0 c -2.5501,-7e-4 -5.0141,-0.6986 -7.0371,-2.1371 l 0,0 c -1.8634,-1.3125 -3.4062,-3.0457 -4.5766,-5.0799 l 0,0 c -1.1508,-1.9908 -1.9775,-4.2105 -2.5046,-6.615 l 0,0 c -0.5166,-2.3534 -0.7756,-4.7565 -0.7756,-7.1939 l 0,0 c 0,-3.885 0.5971,-7.5047 1.8396,-10.7996 l 0,0 c 1.2355,-3.269 2.982,-5.942999 5.4789,-7.704199 l 0,0 c 2.2589,-1.6002 4.9112,-2.4808 7.6349,-2.4696 l 0,0 c 1.8004,-0.0021 3.556,0.3332 5.161101,1.0395 l 0,0 c 1.6065,0.7021 3.0373,1.7696 4.2308,3.0996 l 0,0 c 2.205,2.446499 3.7198,5.391399 4.4681,8.645699 l 0,0 c 0.6811,2.9491 1.0402,5.6686 1.0416,8.1886 l 0,0 c 7e-4,3.9228 -0.6048,7.5579 -1.8739,10.8472 l 0,0 c -1.2537,3.248 -3.0065,5.9045 -5.4803,7.6713 l 0,0 c -2.2407,1.6079 -4.857301,2.5179 -7.547401,2.5067 l 0,0 m 0,-10.0261 c 0.4515,-0.0049 0.7196,-0.0833 0.9982,-0.2289 l 0,0 c 0.2737,-0.1498 0.5859,-0.399 0.9478,-0.8974 l 0,0 c 0.8694,-1.2061 1.4938,-2.6705 1.8389,-4.5311 l 0,0 c 0.389901,-2.1056 0.571201,-3.9158 0.570501,-5.3935 l 0,0 c 0,-2.5046 -0.314301,-4.6844 -0.895301,-6.5604 l 0,0 c -0.5824,-1.8942 -1.3167,-3.0079 -1.8907,-3.5098 l 0,0 c -0.7805,-0.6762 -1.1914,-0.7609 -1.5694,-0.7735 l 0,0 c -0.7168,0.0196 -1.0213,0.1512 -1.4385,0.4774 l 0,0 c -0.5705,0.4816 -1.0773,1.1319 -1.5204,2.0902 l 0,0 c -0.4739,1.0269 -0.8526,2.2582 -1.1067,3.7114 l 0,0 c -0.2625,1.4952 -0.3934,3.0142 -0.3934,4.5647 l 0,0 c 0,1.5519 0.1309,3.0807 0.3941,4.5969 l 0,0 c 0.2527,1.4644 0.6391,2.7174 1.1291,3.7793 l 0,0 c 0.4732,1.0206 1.0031,1.7164 1.5687,2.2106 l 0,0 c 0.3976,0.3199 0.6615,0.4424 1.3671,0.4641 l 0,0" />
        </g>
</svg>
