<?xml version="1.0" encoding="UTF-8" standalone="no"?>
<svg xmlns:dc="http://purl.org/dc/elements/1.1/" xmlns:cc="http://creativecommons.org/ns#" xmlns:rdf="http://www.w3.org/1999/02/22-rdf-syntax-ns#" xmlns:svg="http://www.w3.org/2000/svg" xmlns="http://www.w3.org/2000/svg" xmlns:sodipodi="http://sodipodi.sourceforge.net/DTD/sodipodi-0.dtd" xmlns:inkscape="http://www.inkscape.org/namespaces/inkscape" version="1.2" viewBox="0 0 120 120" width="120" height="120" id="svg9377" inkscape:version="0.91 r13725" sodipodi:docname="ic_1.svg">
        <metadata id="metadata9384">
                <rdf:RDF>
                        <cc:Work rdf:about="">
                                <dc:format>image/svg+xml</dc:format>
                                <dc:type rdf:resource="http://purl.org/dc/dcmitype/StillImage" />
                        </cc:Work>
                </rdf:RDF>
        </metadata>
        <defs id="defs9382" />
        <sodipodi:namedview pagecolor="#ffffff" bordercolor="#666666" borderopacity="1" objecttolerance="10" gridtolerance="10" guidetolerance="10" inkscape:pageopacity="0" inkscape:pageshadow="2" inkscape:window-width="1598" inkscape:window-height="879" id="namedview9380" showgrid="false" inkscape:zoom="5.53125" inkscape:cx="60" inkscape:cy="60" inkscape:window-x="0" inkscape:window-y="19" inkscape:window-maximized="0" inkscape:current-layer="svg9377" />
        <!-- copyright Melissa Steil <mst@pyneo.org> -->
        <g transform="matrix(0.10603829,0,0,0.10603828,-446.63918,-295.26358)" id="g4534">
                <path id="path4536" transform="matrix(13.472222,0,0,13.472224,4239,2811.4444)" style="fill:#ee9900;fill-opacity:0.5;stroke:none" d="M 40.000001,5 A 35.00044,35.000351 0 0 0 5,40 35.00044,35.000351 0 0 0 40.000001,75 35.00044,35.000351 0 0 0 75,40 35.00044,35.000351 0 0 0 40.000001,5 Z m 0.01751,55.999995 c -0.7756,0 -1.5344,-0.3143 -2.0832,-0.8617 l 0,0 c -0.5481,-0.5488 -0.8624,-1.3076 -0.8624,-2.0832 l 0,0 0,-25.6074 -3.2375,2.1735 c -1.3496,0.9051 -3.1773,0.5481 -4.0845,-0.8022 l 0,0 -2.0251,-3.0086 c -0.8974,-1.3342 -0.5572,-3.1444 0.7637,-4.0614 l 0,0 10.3943,-7.222599 c 0.4963,-0.3444 1.0794,-0.5264 1.6814,-0.5264 l 0,0 3.6652,0 c 0.774901,0 1.533701,0.3143 2.082501,0.8631 l 0,0 c 0.5488,0.5474 0.8638,1.3062 0.8638,2.0825 l 0,0 0,36.109499 c 0,0.7749 -0.315,1.5337 -0.8638,2.0832 l 0,0 c -0.5488,0.5474 -1.3076,0.8617 -2.082501,0.8617 l 0,0 -4.2119,0 0,0" />
        </g>
</svg>
