<?xml version="1.0" encoding="UTF-8" standalone="no"?>
<svg xmlns:dc="http://purl.org/dc/elements/1.1/" xmlns:cc="http://creativecommons.org/ns#" xmlns:rdf="http://www.w3.org/1999/02/22-rdf-syntax-ns#" xmlns:svg="http://www.w3.org/2000/svg" xmlns="http://www.w3.org/2000/svg" xmlns:sodipodi="http://sodipodi.sourceforge.net/DTD/sodipodi-0.dtd" xmlns:inkscape="http://www.inkscape.org/namespaces/inkscape" version="1.2" viewBox="0 0 120 120" width="120" height="120" id="svg8775" inkscape:version="0.91 r13725" sodipodi:docname="ic_2.svg">
        <metadata id="metadata8782">
                <rdf:RDF>
                        <cc:Work rdf:about="">
                                <dc:format>image/svg+xml</dc:format>
                                <dc:type rdf:resource="http://purl.org/dc/dcmitype/StillImage" />
                        </cc:Work>
                </rdf:RDF>
        </metadata>
        <defs id="defs8780" />
        <sodipodi:namedview pagecolor="#ffffff" bordercolor="#666666" borderopacity="1" objecttolerance="10" gridtolerance="10" guidetolerance="10" inkscape:pageopacity="0" inkscape:pageshadow="2" inkscape:window-width="1598" inkscape:window-height="879" id="namedview8778" showgrid="false" inkscape:zoom="5.53125" inkscape:cx="60" inkscape:cy="60" inkscape:window-x="0" inkscape:window-y="19" inkscape:window-maximized="0" inkscape:current-layer="svg8775" />
        <!-- copyright Melissa Steil <mst@pyneo.org> -->
        <g transform="matrix(0.10603829,0,0,0.10603828,-446.63918,-295.26358)" id="g4534">
                <path id="path4536" transform="matrix(13.472222,0,0,13.472224,4239,2811.4444)" style="fill:#ee9900;fill-opacity:0.5;stroke:none" d="M 40.000001,5 A 35.00044,35.000351 0 0 0 5,40 35.00044,35.000351 0 0 0 40.000001,75 35.00044,35.000351 0 0 0 75,40 35.00044,35.000351 0 0 0 40.000001,5 Z M 29.727509,60.999995 c -0.8491,0 -1.6807,-0.3444 -2.2813,-0.945 l 0,0 c -0.6013,-0.6013 -0.9457,-1.4329 -0.9457,-2.282 l 0,0 0,-2.324 c 0.0084,-2.4059 0.3493,-4.5535 1.3692,-6.4547 l 0,0 c 0.9492,-1.7178 2.3639,-3.2928 4.2826,-5.0708 l 0,0 4.6459,-4.2231 c 1.9082,-1.7353 3.283,-3.1325 4.0446,-4.0558 l 0,0 c 0.777,-0.9219 1.1228,-1.6338 1.1564,-1.8011 l 0,0 c 0.1589,-0.5474 0.2408,-1.1144 0.2415,-1.7402 l 0,0 c 7e-4,-0.7364 -0.0952,-1.2782 -0.2149,-1.6373 l 0,0 c -0.1225,-0.3633 -0.2478,-0.5439 -0.3843,-0.6888 l 0,0 c -0.1561,-0.1561 -0.3101,-0.2653 -0.6069,-0.3773 l 0,0 c -0.2947,-0.1071 -0.742,-0.1974 -1.3776,-0.1974 l 0,0 c -0.8267,0.0035 -1.6177,0.1834 -2.5088,0.6188 l 0,0 c -0.7945,0.3829 -2.0412,1.2978 -3.5021,2.7678 l 0,0 c -0.6853,0.6846 -1.6359,1.0248 -2.5998,0.9296 l 0,0 c -0.9639,-0.0959 -1.8298,-0.6153 -2.3667,-1.4217 l 0,0 -2.0069,-3.01 c -0.8435,-1.2649 -0.6916,-2.94 0.3647,-4.032 l 0,0 c 1.1662,-1.206799 2.4339,-2.282699 3.7947,-3.217199 l 0,0 c 1.4371,-0.9877 2.9778,-1.7339 4.5969,-2.1896 l 0,0 c 1.5225,-0.4284 3.0835,-0.6482 4.6508,-0.6482 l 0,0 c 2.7293,-0.0063 5.318601,0.637 7.468301,2.0741 l 0,0 c 1.939,1.2845 3.5028,3.0051 4.3617,5.098099 l 0,0 c 0.7217,1.7479 1.1165,3.5728 1.1151,5.4033 l 0,0 c 0.0056,2.7272 -0.6258,5.3347 -1.9432,7.5908 l 0,0 c -1.2677,2.1679 -3.1276,4.2259 -5.5496,6.3518 l 0,0 -5.070801,4.4373 -0.0336,0.0287 c -0.406,0.3416 -0.7714,0.6678 -1.0934,0.9716 l 0,0 11.309201,0 c 0.8498,0 1.6807,0.3444 2.2813,0.945 l 0,0 c 0.6013,0.6006 0.9457,1.4322 0.9457,2.282 l 0,0 0,3.5917 c 0,0.8491 -0.3437,1.68 -0.9457,2.2813 l 0,0 c -0.6006,0.5999 -1.4315,0.9443 -2.2813,0.9443 l 0,0 -20.916001,0 0,0" />
        </g>
</svg>
