<?xml version="1.0" encoding="UTF-8" standalone="no"?>
<svg xmlns:dc="http://purl.org/dc/elements/1.1/" xmlns:cc="http://creativecommons.org/ns#" xmlns:rdf="http://www.w3.org/1999/02/22-rdf-syntax-ns#" xmlns:svg="http://www.w3.org/2000/svg" xmlns="http://www.w3.org/2000/svg" xmlns:sodipodi="http://sodipodi.sourceforge.net/DTD/sodipodi-0.dtd" xmlns:inkscape="http://www.inkscape.org/namespaces/inkscape" version="1.2" viewBox="0 0 120 120" width="120" height="120" id="svg8173" inkscape:version="0.91 r13725" sodipodi:docname="ic_3.svg">
        <metadata id="metadata8180">
                <rdf:RDF>
                        <cc:Work rdf:about="">
                                <dc:format>image/svg+xml</dc:format>
                                <dc:type rdf:resource="http://purl.org/dc/dcmitype/StillImage" />
                        </cc:Work>
                </rdf:RDF>
        </metadata>
        <defs id="defs8178" />
        <sodipodi:namedview pagecolor="#ffffff" bordercolor="#666666" borderopacity="1" objecttolerance="10" gridtolerance="10" guidetolerance="10" inkscape:pageopacity="0" inkscape:pageshadow="2" inkscape:window-width="1598" inkscape:window-height="879" id="namedview8176" showgrid="false" inkscape:zoom="5.53125" inkscape:cx="60" inkscape:cy="60" inkscape:window-x="0" inkscape:window-y="19" inkscape:window-maximized="0" inkscape:current-layer="svg8173" />
        <!-- copyright Melissa Steil <mst@pyneo.org> -->
        <g transform="matrix(0.10603829,0,0,0.10603828,-446.63918,-295.26358)" id="g4534">
                <path id="path4536" transform="matrix(13.472222,0,0,13.472224,4239,2811.4444)" style="fill:#ee9900;fill-opacity:0.5;stroke:none" d="M 40.000001,5 A 35.00044,35.000351 0 0 0 5,40 35.00044,35.000351 0 0 0 40.000001,75 35.00044,35.000351 0 0 0 75,40 35.00044,35.000351 0 0 0 40.000001,5 Z m 0.128808,56.310095 c -2.5487,-7e-4 -4.893,-0.3598 -7.0049,-1.1725 l 0,0 c -1.9754,-0.7602 -3.7324,-1.8032 -5.1807,-3.1633 l 0,0 c -1.0276,-0.9625 -1.2971,-2.4934 -0.6587,-3.7478 l 0,0 1.7122,-3.374 c 0.441,-0.868 1.2614,-1.4889 2.2169,-1.6765 l 0,0 c 0.9555,-0.1876 1.9495,0.0763 2.6866,0.714 l 0,0 c 1.0794,0.9359 2.0699,1.5526 2.9323,1.9103 l 0,0 c 0.7707,0.3227 1.8165,0.5355 3.1927,0.5355 l 0,0 c 1.0185,-0.0042 1.7598,-0.1995 2.408,-0.5397 l 0,0 c 0.5691,-0.3199 0.819,-0.5929 1.0822,-1.141 l 0,0 c 0.3283,-0.7392 0.4998,-1.5232 0.5019,-2.4668 l 0,0 c -0.0021,-1.4966 -0.3276,-2.2659 -0.6181,-2.6397 l 0,0 c -0.4942,-0.6188 -0.8687,-0.8477 -1.4462,-1.0129 l 0,0 c -1.0325,-0.2688 -1.9824,-0.3913 -2.8616,-0.3913 l 0,0 c -0.6993,-0.0021 -1.7794,0.0728 -3.1556,0.2373 l 0,0 c -0.8995,0.1064 -1.8018,-0.1764 -2.4794,-0.7784 l 0,0 c -0.6776,-0.6006 -1.0647,-1.4644 -1.0647,-2.3702 l 0,0 0,-2.8546 c 0,-0.6342 0.1918,-1.2593 0.5481,-1.7829 l 0,0 c 1.1732,-1.7234 2.6565,-3.5896 4.4625,-5.635 l 0,0 -6.7711,0 c -0.8344,0 -1.6513,-0.3381 -2.2421,-0.9289 l 0,0 c -0.5908,-0.5908 -0.9282,-1.4077 -0.9282,-2.2421 l 0,0 0,-3.529399 c 0,-0.8344 0.3374,-1.6513 0.9282,-2.2414 l 0,0 c 0.5908,-0.5908 1.4077,-0.9289 2.2421,-0.9289 l 0,0 19.048401,0 c 0.8344,0 1.6513,0.3381 2.2421,0.9289 l 0,0 c 0.5908,0.5901 0.9282,1.407 0.9282,2.2414 l 0,0 0,4.048099 c 0,1.1018 -0.5649,2.1154 -1.5015,2.6964 l 0,0 c -1.1025,0.6776 -2.6117,1.9432 -4.3603,3.7772 l 0,0 c -0.2639,0.2765 -0.5208,0.5488 -0.7714,0.8183 l 0,0 c 0.7392,0.252 1.4504,0.5663 2.1287,0.9457 l 0,0 c 2.1217,1.1711 3.8388,2.9694 4.8013,5.1653 l 0,0 c 0.8708,1.9544 1.3139,4.0656 1.3111,6.2188 l 0,0 c 0.0091,3.0317 -0.7658,5.9045 -2.387,8.2901 l 0,0 c -1.5057,2.2435 -3.5392,3.9949 -5.9745,4.9028 l 0,0 c -2.021601,0.7581 -4.009601,1.1858 -5.967501,1.1872 l 0,0" />
        </g>
</svg>
