<?xml version="1.0" encoding="UTF-8" standalone="no"?>
<svg xmlns:dc="http://purl.org/dc/elements/1.1/" xmlns:cc="http://creativecommons.org/ns#" xmlns:rdf="http://www.w3.org/1999/02/22-rdf-syntax-ns#" xmlns:svg="http://www.w3.org/2000/svg" xmlns="http://www.w3.org/2000/svg" xmlns:sodipodi="http://sodipodi.sourceforge.net/DTD/sodipodi-0.dtd" xmlns:inkscape="http://www.inkscape.org/namespaces/inkscape" version="1.2" viewBox="0 0 120 120" width="120" height="120" id="svg7571" inkscape:version="0.91 r13725" sodipodi:docname="ic_4.svg">
        <metadata id="metadata7578">
                <rdf:RDF>
                        <cc:Work rdf:about="">
                                <dc:format>image/svg+xml</dc:format>
                                <dc:type rdf:resource="http://purl.org/dc/dcmitype/StillImage" />
                        </cc:Work>
                </rdf:RDF>
        </metadata>
        <defs id="defs7576" />
        <sodipodi:namedview pagecolor="#ffffff" bordercolor="#666666" borderopacity="1" objecttolerance="10" gridtolerance="10" guidetolerance="10" inkscape:pageopacity="0" inkscape:pageshadow="2" inkscape:window-width="1598" inkscape:window-height="879" id="namedview7574" showgrid="false" inkscape:zoom="5.53125" inkscape:cx="60" inkscape:cy="60" inkscape:window-x="0" inkscape:window-y="19" inkscape:window-maximized="0" inkscape:current-layer="svg7571" />
        <!-- copyright Melissa Steil <mst@pyneo.org> -->
        <g transform="matrix(0.10603829,0,0,0.10603828,-446.63918,-295.26358)" id="g4534">
                <path id="path4536" transform="matrix(13.472222,0,0,13.472224,4239,2811.4444)" style="fill:#ee9900;fill-opacity:0.5;stroke:none" d="M 40.000001,5 A 35.00044,35.000351 0 0 0 5,40 35.00044,35.000351 0 0 0 40.000001,75 35.00044,35.000351 0 0 0 75,40 35.00044,35.000351 0 0 0 40.000001,5 Z m 2.669108,56.340195 c -0.8778,0 -1.7367,-0.3556 -2.3618,-0.9779 l 0,0 c -0.6209,-0.6209 -0.9765,-1.4812 -0.9765,-2.359 l 0,0 0,-5.8401 -12.4509,0 c -0.8778,0 -1.7374,-0.3577 -2.3583,-0.9793 l 0,0 c -0.6223,-0.6202 -0.9786,-1.4805 -0.9786,-2.3597 l 0,0 0,-3.8787 c 0,-0.7147 0.2331,-1.4203 0.6587,-1.9915 l 0,0 17.0457,-22.945999 c 0.6328,-0.8512 1.6212,-1.3482 2.6796,-1.3482 l 0,0 2.624301,0 c 0.8778,0 1.7367,0.3563 2.3604,0.9772 l 0,0 c 0.6216,0.6223 0.9758,1.4826 0.9758,2.3618 l 0,0 0,19.828199 0.4347,0 c 0.8778,0 1.7367,0.3542 2.3583,0.9772 l 0,0 c 0.6223,0.6209 0.9772,1.4798 0.9772,2.3597 l 0,0 0,3.6603 c 0,0.8799 -0.3542,1.7395 -0.9772,2.359 l 0,0 c -0.6216,0.623 -1.4805,0.98 -2.3583,0.98 l 0,0 -0.4347,0 0,5.8401 c 0,0.8792 -0.3542,1.7381 -0.9758,2.359 l 0,0 c -0.6237,0.6223 -1.4833,0.9779 -2.3604,0.9779 l 0,0 -3.882201,0 0,0 m -1.8641,-24.8731 -4.7495,5.3571 4.7495,0 0,-5.3571 z" />
        </g>
</svg>
