<?xml version="1.0" encoding="UTF-8" standalone="no"?>
<svg xmlns:dc="http://purl.org/dc/elements/1.1/" xmlns:cc="http://creativecommons.org/ns#" xmlns:rdf="http://www.w3.org/1999/02/22-rdf-syntax-ns#" xmlns:svg="http://www.w3.org/2000/svg" xmlns="http://www.w3.org/2000/svg" xmlns:sodipodi="http://sodipodi.sourceforge.net/DTD/sodipodi-0.dtd" xmlns:inkscape="http://www.inkscape.org/namespaces/inkscape" version="1.2" viewBox="0 0 120 120" width="120" height="120" id="svg6969" inkscape:version="0.91 r13725" sodipodi:docname="ic_5.svg">
        <metadata id="metadata6976">
                <rdf:RDF>
                        <cc:Work rdf:about="">
                                <dc:format>image/svg+xml</dc:format>
                                <dc:type rdf:resource="http://purl.org/dc/dcmitype/StillImage" />
                        </cc:Work>
                </rdf:RDF>
        </metadata>
        <defs id="defs6974" />
        <sodipodi:namedview pagecolor="#ffffff" bordercolor="#666666" borderopacity="1" objecttolerance="10" gridtolerance="10" guidetolerance="10" inkscape:pageopacity="0" inkscape:pageshadow="2" inkscape:window-width="1598" inkscape:window-height="879" id="namedview6972" showgrid="false" inkscape:zoom="5.53125" inkscape:cx="60" inkscape:cy="60" inkscape:window-x="0" inkscape:window-y="19" inkscape:window-maximized="0" inkscape:current-layer="svg6969" />
        <!-- copyright Melissa Steil <mst@pyneo.org> -->
        <g transform="matrix(0.10603829,0,0,0.10603828,-446.63918,-295.26358)" id="g4534">
                <path id="path4536" transform="matrix(13.472222,0,0,13.472224,4239,2811.4444)" style="fill:#ee9900;fill-opacity:0.5;stroke:none" d="M 40.000001,5 A 35.00044,35.000351 0 0 0 5,40 35.00044,35.000351 0 0 0 40.000001,75 35.00044,35.000351 0 0 0 75,40 35.00044,35.000351 0 0 0 40.000001,5 Z m -0.700692,55.610095 c -1.8963,7e-4 -3.7261,-0.2436 -5.4572,-0.7504 l 0,0 c -1.589,-0.4662 -2.9652,-1.0038 -4.172,-1.6975 l 0,0 c -1.0577,-0.6314 -1.8746,-1.1368 -2.688,-2.0895 l 0,0 c -0.7623,-0.931 -0.9296,-2.2274 -0.4298,-3.3222 l 0,0 1.6093,-3.5294 c 0.4172,-0.9163 1.2439,-1.5785 2.2295,-1.7871 l 0,0 c 0.9849,-0.2086 2.0097,0.0637 2.7615,0.7322 l 0,0 c 0.6566,0.5852 1.5771,1.1907 2.7853,1.7647 l 0,0 c 0.9555,0.4515 2.0503,0.7014 3.4139,0.7042 l 0,0 c 1.1494,-0.0042 1.9236,-0.231 2.5312,-0.581 l 0,0 c 0.6237,-0.3815 0.8645,-0.6853 1.0885,-1.2082 l 0,0 c 0.3108,-0.7875 0.4753,-1.6331 0.4767,-2.6173 l 0,0 c 0,-0.9289 -0.1386,-1.6464 -0.3542,-2.2064 l 0,0 c -0.2191,-0.5635 -0.5026,-0.987 -0.9205,-1.3902 l 0,0 c -0.3647,-0.3444 -0.8484,-0.6461 -1.603,-0.8862 l 0,0 c -0.7483,-0.238 -1.7612,-0.3934 -3.0345,-0.3927 l 0,0 c -1.1053,-7e-4 -1.9908,0.0588 -2.6033,0.1491 l 0,0 c -0.7665,0.112 -1.3972,0.2289 -1.8641,0.3381 l 0,0 c -0.938,0.2198 -1.939,-0.0035 -2.6936,-0.602 l 0,0 c -0.7546,-0.5978 -1.2019,-1.5218 -1.2019,-2.4843 l 0,0 0,-16.193799 c 0,-0.8344 0.3381,-1.6513 0.9289,-2.2421 l 0,0 c 0.5908,-0.5901 1.4077,-0.9282 2.2421,-0.9282 l 0,0 16.972901,0 c 0.8344,0 1.6513,0.3381 2.2421,0.9289 l 0,0 c 0.5901,0.5901 0.9282,1.407 0.9282,2.2421 l 0,0 0,3.529399 c 0,0.8351 -0.3381,1.6513 -0.9282,2.2421 l 0,0 c -0.5908,0.5908 -1.4077,0.9289 -2.2421,0.9289 l 0,0 -10.117101,0 0,2.3877 c 1.904,0.0539 3.696,0.3346 5.3592,0.8848 l 0,0 c 1.857101,0.6125 3.548301,1.5778 4.956701,2.8735 l 0,0 c 1.4203,1.2999 2.5144,2.9225 3.2074,4.7306 l 0,0 c 0.6972,1.8095 1.0094,3.7884 1.0094,5.8835 l 0,0 c 0.0056,3.2935 -0.7448,6.3287 -2.4535,8.8046 l 0,0 c -1.5407,2.2554 -3.6071,4.0033 -6.1012,4.8006 l 0,0 c -1.978201,0.6391 -3.943101,0.9835 -5.878601,0.9835 l 0,0" />
        </g>
</svg>
