<?xml version="1.0" encoding="UTF-8" standalone="no"?>
<svg xmlns:dc="http://purl.org/dc/elements/1.1/" xmlns:cc="http://creativecommons.org/ns#" xmlns:rdf="http://www.w3.org/1999/02/22-rdf-syntax-ns#" xmlns:svg="http://www.w3.org/2000/svg" xmlns="http://www.w3.org/2000/svg" xmlns:sodipodi="http://sodipodi.sourceforge.net/DTD/sodipodi-0.dtd" xmlns:inkscape="http://www.inkscape.org/namespaces/inkscape" version="1.2" viewBox="0 0 120 120" width="120" height="120" id="svg6367" inkscape:version="0.91 r13725" sodipodi:docname="ic_6.svg">
        <metadata id="metadata6374">
                <rdf:RDF>
                        <cc:Work rdf:about="">
                                <dc:format>image/svg+xml</dc:format>
                                <dc:type rdf:resource="http://purl.org/dc/dcmitype/StillImage" />
                        </cc:Work>
                </rdf:RDF>
        </metadata>
        <defs id="defs6372" />
        <sodipodi:namedview pagecolor="#ffffff" bordercolor="#666666" borderopacity="1" objecttolerance="10" gridtolerance="10" guidetolerance="10" inkscape:pageopacity="0" inkscape:pageshadow="2" inkscape:window-width="1598" inkscape:window-height="879" id="namedview6370" showgrid="false" inkscape:zoom="5.53125" inkscape:cx="60" inkscape:cy="60" inkscape:window-x="0" inkscape:window-y="19" inkscape:window-maximized="0" inkscape:current-layer="svg6367" />
        <!-- copyright Melissa Steil <mst@pyneo.org> -->
        <g transform="matrix(0.10603829,0,0,0.10603828,-446.63918,-295.26358)" id="g4534">
                <path id="path4536" transform="matrix(13.472222,0,0,13.472224,4239,2811.4444)" style="fill:#ee9900;fill-opacity:0.5;stroke:none" d="M 40.000001,5 A 35.00044,35.000351 0 0 0 5,40 35.00044,35.000351 0 0 0 40.000001,75 35.00044,35.000351 0 0 0 75,40 35.00044,35.000351 0 0 0 40.000001,5 Z m -0.414392,55.817995 c -0.0091,0 -0.0168,0 -0.0259,0 l 0,0 c -2.2925,0 -4.4884,-0.4949 -6.3861,-1.5918 l 0,0 c -1.7486,-1.0052 -3.241,-2.3891 -4.3638,-4.0593 l 0,0 c -1.0934,-1.6149 -1.8739,-3.4447 -2.3492,-5.4152 l 0,0 c -0.4578,-1.8914 -0.6853,-3.8332 -0.6853,-5.8072 l 0,0 c 0,-3.8122 0.5117,-7.3073 1.6016,-10.4566 l 0,0 c 1.0633,-3.0786 2.5683,-5.7764 4.5451,-7.9996 l 0,0 c 1.9656,-2.218299 4.3575,-3.895499 7.0574,-4.890199 l 0,0 c 2.5998,-0.9611 5.4495,-1.4168 8.495901,-1.4161 l 0,0 c 1.4553,0 2.7237,0.9898 3.0765,2.4017 l 0,0 0.7784,3.114299 c 0.2366,0.945 0.0224,1.953 -0.5768,2.7209 l 0,0 c -0.5978,0.7679 -1.5253,1.2194 -2.4983,1.2194 l 0,0 c -3.2382,0.0056 -5.593701,0.7182 -7.381501,1.953 l 0,0 c -0.3612,0.2513 -0.7063,0.5453 -1.0367,0.8932 l 0,0 c 0.0378,0 0.0756,0 0.1134,0 l 0,0 c 2.8154,-0.0189 5.543301,0.8757 7.646801,2.6649 l 0,0 c 1.9264,1.6114 3.3719,3.6841 4.1566,6.0354 l 0,0 c 0.6909,2.0594 1.0724,4.074 1.0731,6.0452 l 0,0 c 7e-4,1.8732 -0.2828,3.6995 -0.8673,5.425 l 0,0 c -0.5782,1.7192 -1.4378,3.2949 -2.5662,4.6501 l 0,0 c -1.1487,1.3818 -2.5879,2.499 -4.2168,3.2879 l 0,0 c -1.715701,0.8337 -3.625301,1.2278 -5.590901,1.225 l 0,0 m 0.0511,-9.8189 c 0.6979,-0.0231 1.0115,-0.147 1.5106,-0.5565 l 0,0 c 0.6062,-0.5474 0.8841,-1.0185 1.0577,-1.6338 l 0,0 c 0.2772,-1.0283 0.3878,-1.8676 0.3857,-2.4759 l 0,0 c -7e-4,-1.3111 -0.2359,-2.296 -0.6146,-3.0765 l 0,0 c -0.4088,-0.819 -0.7791,-1.1536 -1.1732,-1.3755 l 0,0 c -0.6825,-0.3647 -1.1816,-0.4725 -1.6338,-0.4753 l 0,0 c -0.7889,7e-4 -1.463,0.1281 -2.0923,0.3647 l 0,0 c -0.3045,0.1162 -0.5873,0.2436 -0.8533,0.3829 l 0,0 c -0.0392,0.5292 -0.0602,1.1277 -0.0595,1.7913 l 0,0 c 0,0.9093 0.0854,1.8893 0.266,2.9428 l 0,0 c 0.1589,0.9219 0.4228,1.7066 0.7805,2.4003 l 0,0 c 0.3269,0.6244 0.6874,1.043 1.1459,1.393 l 0,0 c 0.2247,0.1582 0.5145,0.3073 1.2803,0.3185 l 0,0" />
        </g>
</svg>
