<?xml version="1.0" encoding="UTF-8" standalone="no"?>
<svg xmlns:dc="http://purl.org/dc/elements/1.1/" xmlns:cc="http://creativecommons.org/ns#" xmlns:rdf="http://www.w3.org/1999/02/22-rdf-syntax-ns#" xmlns:svg="http://www.w3.org/2000/svg" xmlns="http://www.w3.org/2000/svg" xmlns:sodipodi="http://sodipodi.sourceforge.net/DTD/sodipodi-0.dtd" xmlns:inkscape="http://www.inkscape.org/namespaces/inkscape" version="1.2" viewBox="0 0 120 120" width="120" height="120" id="svg5749" inkscape:version="0.91 r13725" sodipodi:docname="ic_7.svg">
        <metadata id="metadata5756">
                <rdf:RDF>
                        <cc:Work rdf:about="">
                                <dc:format>image/svg+xml</dc:format>
                                <dc:type rdf:resource="http://purl.org/dc/dcmitype/StillImage" />
                        </cc:Work>
                </rdf:RDF>
        </metadata>
        <defs id="defs5754" />
        <sodipodi:namedview pagecolor="#ffffff" bordercolor="#666666" borderopacity="1" objecttolerance="10" gridtolerance="10" guidetolerance="10" inkscape:pageopacity="0" inkscape:pageshadow="2" inkscape:window-width="1598" inkscape:window-height="879" id="namedview5752" showgrid="false" inkscape:zoom="5.53125" inkscape:cx="60" inkscape:cy="58.281899" inkscape:window-x="0" inkscape:window-y="19" inkscape:window-maximized="0" inkscape:current-layer="svg5749" />
        <!-- copyright Melissa Steil <mst@pyneo.org> -->
        <g transform="matrix(0.10603829,0,0,0.10603828,-446.63918,-295.26358)" id="g4534">
                <path id="path4536" transform="matrix(13.472222,0,0,13.472224,4239,2811.4444)" style="fill:#ee9900;fill-opacity:0.5;stroke:none" d="M 40.000001,5 A 35.00044,35.000351 0 0 0 5,40 35.00044,35.000351 0 0 0 40.000001,75 35.00044,35.000351 0 0 0 75,40 35.00044,35.000351 0 0 0 40.000001,5 Z m -4.360992,55.973395 c -0.8834,0 -1.7248,-0.3668 -2.3254,-1.015 l 0,0 c -0.5999,-0.6468 -0.903,-1.5134 -0.8358,-2.3947 l 0,0 c 0.2968,-3.9459 1.1298,-8.05 2.4717,-12.3137 l 0,0 c 1.3363,-4.2455 2.9596,-8.0752 4.8846,-11.4821 l 0,0 c 0.686,-1.2152 1.3741,-2.3723 2.0615,-3.4699 l 0,0 -11.2406,0 c -0.8344,0 -1.6513,-0.3374 -2.2421,-0.9289 l 0,0 c -0.5908,-0.5901 -0.9282,-1.407 -0.9282,-2.2414 l 0,0 0,-3.530099 c 0,-0.8344 0.3374,-1.6506 0.9282,-2.2414 l 0,0 c 0.5908,-0.5901 1.4077,-0.9289 2.2421,-0.9289 l 0,0 21.487901,0 c 0.8351,0 1.6527,0.3388 2.2421,0.9289 l 0,0 c 0.5908,0.5908 0.9296,1.4077 0.9296,2.2414 l 0,0 0,3.530099 c 0,0.6909 -0.2282,1.3657 -0.6454,1.9166 l 0,0 c -3.5462,4.6725 -6.2566,9.4346 -8.1648,14.294 l 0,0 c -1.920801,4.8958 -3.101001,9.8042 -3.556001,14.7553 l 0,0 c -0.1505,1.6289 -1.5218,2.8798 -3.1584,2.8798 l 0,0 -4.151,0 0,0" />
        </g>
</svg>
