<?xml version="1.0" encoding="UTF-8" standalone="no"?>
<svg xmlns:dc="http://purl.org/dc/elements/1.1/" xmlns:cc="http://creativecommons.org/ns#" xmlns:rdf="http://www.w3.org/1999/02/22-rdf-syntax-ns#" xmlns:svg="http://www.w3.org/2000/svg" xmlns="http://www.w3.org/2000/svg" xmlns:sodipodi="http://sodipodi.sourceforge.net/DTD/sodipodi-0.dtd" xmlns:inkscape="http://www.inkscape.org/namespaces/inkscape" version="1.2" viewBox="0 0 120 120" width="120" height="120" id="svg5147" inkscape:version="0.91 r13725" sodipodi:docname="ic_8.svg">
        <metadata id="metadata5154">
                <rdf:RDF>
                        <cc:Work rdf:about="">
                                <dc:format>image/svg+xml</dc:format>
                                <dc:type rdf:resource="http://purl.org/dc/dcmitype/StillImage" />
                        </cc:Work>
                </rdf:RDF>
        </metadata>
        <defs id="defs5152" />
        <sodipodi:namedview pagecolor="#ffffff" bordercolor="#666666" borderopacity="1" objecttolerance="10" gridtolerance="10" guidetolerance="10" inkscape:pageopacity="0" inkscape:pageshadow="2" inkscape:window-width="1598" inkscape:window-height="879" id="namedview5150" showgrid="false" inkscape:zoom="5.53125" inkscape:cx="60" inkscape:cy="60" inkscape:window-x="0" inkscape:window-y="19" inkscape:window-maximized="0" inkscape:current-layer="svg5147" />
        <!-- copyright Melissa Steil <mst@pyneo.org> -->
        <g transform="matrix(0.10603829,0,0,0.10603828,-446.63918,-295.26358)" id="g4534">
                <path id="path4536" transform="matrix(13.472222,0,0,13.472224,4239,2811.4444)" style="fill:#ee9900;fill-opacity:0.5;stroke:none" d="M 40.000001,5 A 35.00044,35.000351 0 0 0 5,40 35.00044,35.000351 0 0 0 40.000001,75 35.00044,35.000351 0 0 0 75,40 35.00044,35.000351 0 0 0 40.000001,5 Z m 0.752508,55.974095 c -1.624,7e-4 -3.2382,-0.2674 -4.7922,-0.7861 l 0,0 c -1.6254,-0.539 -3.1262,-1.3909 -4.4058,-2.5151 l 0,0 c -1.3139,-1.1466 -2.3667,-2.5753 -3.1339,-4.1818 l 0,0 c -0.8442,-1.757 -1.2229,-3.7163 -1.2208,-5.7582 l 0,0 c -0.0049,-2.2547 0.5019,-4.4478 1.5302,-6.4015 l 0,0 c 0.4326,-0.8344 0.9709,-1.6051 1.5953,-2.3009 l 0,0 c -0.3962,-0.5229 -0.7539,-1.0759 -1.071,-1.6548 l 0,0 c -1.0087,-1.8221 -1.54,-3.8661 -1.5351,-5.9402 l 0,0 c -0.0154,-2.779 0.8092,-5.4663 2.5284,-7.556499 l 0,0 c 1.491,-1.8382 3.3348,-3.2599 5.4901,-3.9683 l 0,0 c 1.7143,-0.5635 3.3775,-0.8841 5.0148,-0.8855 l 0,0 c 2.4507,-0.0056 4.822301,0.5782 6.893601,1.7675 l 0,0 c 1.988,1.1284 3.6386,2.7027 4.6473,4.679499 l 0,0 c 0.9121,1.7682 1.3916,3.7226 1.3881,5.7029 l 0,0 c 0.0049,2.1329 -0.4956,4.2161 -1.5022,6.0578 l 0,0 c -0.3213,0.5908 -0.6825,1.1564 -1.0808,1.6933 l 0,0 c 0.6272,0.714 1.1648,1.5085 1.5925,2.3667 l 0,0 c 1.0031,1.974 1.5127,4.1573 1.5085,6.3875 l 0,0 c 0.0119,3.0037 -0.7826,5.845 -2.5319,8.092 l 0,0 c -1.5204,1.9719 -3.4237,3.5 -5.6728,4.256 l 0,0 c -1.790601,0.6034 -3.532201,0.9436 -5.242301,0.9457 l 0,0 m 0,-9.9232 c 0.8316,-0.0063 1.3979,-0.1715 1.9327,-0.4774 l 0,0 c 0.5684,-0.343 0.798,-0.6244 0.9884,-1.0066 l 0,0 c 0.2681,-0.5712 0.3927,-1.1193 0.3948,-1.7822 l 0,0 c -0.0105,-0.9912 -0.2184,-1.5582 -0.5768,-2.0762 l 0,0 c -0.5173,-0.7154 -0.9415,-1.008 -1.3132,-1.1641 l 0,0 c -0.7672,-0.3157 -1.2978,-0.3941 -1.4777,-0.3885 l 0,0 c -0.7455,0.0098 -1.2544,0.1666 -1.8326,0.5383 l 0,0 c -0.6734,0.4522 -0.9604,0.833 -1.1396,1.2201 l 0,0 c -0.2814,0.6356 -0.3955,1.1879 -0.3976,1.7661 l 0,0 c 0.0119,1.0311 0.2275,1.5603 0.5558,2.0104 l 0,0 c 0.5278,0.693 0.9191,0.9212 1.1907,1.0185 l 0,0 c 0.7252,0.2569 1.2859,0.3423 1.6751,0.3416 l 0,0 m -0.0518,-16.6096 c 0.5838,-0.0098 0.9779,-0.1281 1.4854,-0.4536 l 0,0 c 0.6048,-0.4088 0.8442,-0.7371 0.9814,-1.0255 l 0,0 c 0.224,-0.4935 0.3276,-0.959 0.3311,-1.526 l 0,0 c -0.0119,-0.8701 -0.1862,-1.2264 -0.3794,-1.4917 l 0,0 c -0.3969,-0.5033 -0.6804,-0.6734 -0.9786,-0.7854 l 0,0 c -0.7042,-0.2506 -1.2005,-0.3185 -1.3874,-0.3143 l 0,0 c -0.7,0.007 -1.1935,0.147 -1.7185,0.4473 l 0,0 c -0.5978,0.3577 -0.7567,0.6076 -0.8358,0.7665 l 0,0 c -0.1967,0.4277 -0.2933,0.8421 -0.2961,1.3783 l 0,0 c 0.0014,0.644 0.1071,1.0717 0.2464,1.3853 l 0,0 c 0.1911,0.4256 0.3899,0.6846 0.6111,0.8883 l 0,0 c 0.2821,0.2548 0.5509,0.4144 0.8764,0.5362 l 0,0 c 0.3801,0.1372 0.7147,0.1939 1.064,0.1946 l 0,0" />
        </g>
</svg>
