<?xml version="1.0" encoding="UTF-8" standalone="no"?>
<svg xmlns:dc="http://purl.org/dc/elements/1.1/" xmlns:cc="http://creativecommons.org/ns#" xmlns:rdf="http://www.w3.org/1999/02/22-rdf-syntax-ns#" xmlns:svg="http://www.w3.org/2000/svg" xmlns="http://www.w3.org/2000/svg" xmlns:sodipodi="http://sodipodi.sourceforge.net/DTD/sodipodi-0.dtd" xmlns:inkscape="http://www.inkscape.org/namespaces/inkscape" version="1.2" viewBox="0 0 120 120" width="120" height="120" id="svg4523" inkscape:version="0.91 r13725" sodipodi:docname="ic_9.svg">
        <metadata id="metadata4530">
                <rdf:RDF>
                        <cc:Work rdf:about="">
                                <dc:format>image/svg+xml</dc:format>
                                <dc:type rdf:resource="http://purl.org/dc/dcmitype/StillImage" />
                                <dc:title></dc:title>
                        </cc:Work>
                </rdf:RDF>
        </metadata>
        <defs id="defs4528" />
        <sodipodi:namedview pagecolor="#ffffff" bordercolor="#666666" borderopacity="1" objecttolerance="10" gridtolerance="10" guidetolerance="10" inkscape:pageopacity="0" inkscape:pageshadow="2" inkscape:window-width="1598" inkscape:window-height="879" id="namedview4526" showgrid="false" inkscape:zoom="5.8333333" inkscape:cx="60" inkscape:cy="60" inkscape:window-x="0" inkscape:window-y="19" inkscape:window-maximized="0" inkscape:current-layer="svg4523" />
        <!-- copyright Melissa Steil <mst@pyneo.org> -->
        <g transform="matrix(0.10603829,0,0,0.10603828,-446.63918,-295.26358)" id="g4534">
                <path id="path4536" transform="matrix(13.472222,0,0,13.472224,4239,2811.4444)" style="fill:#ee9900;fill-opacity:0.5;stroke:none" d="M 40.000001,5 A 35.00044,35.000351 0 0 0 5,40 35.00044,35.000351 0 0 0 40.000001,75 35.00044,35.000351 0 0 0 75,40 35.00044,35.000351 0 0 0 40.000001,5 Z m -5.529292,55.869795 c -0.3423,0 -0.6398,-0.0049 -0.9121,-0.0161 l 0,0 c -0.2793,-0.0133 -0.5082,-0.0238 -0.8477,-0.077 l 0,0 c -1.6996,-0.2786 -2.8609,-1.8515 -2.6285,-3.5574 l 0,0 0.4676,-3.4265 c 0.2142,-1.5729 1.5533,-2.7419 3.1416,-2.7419 l 0,0 c 0.2709,7e-4 0.5411,0.0126 0.8428,0.0511 l 0,0 c 0.0098,7e-4 0.0224,7e-4 0.0399,0 l 0,0 c 1.638,-0.0028 3.0149,-0.3276 4.2917,-0.9618 l 0,0 c 0.8316,-0.4221 1.5239,-0.9548 2.1343,-1.6772 l 0,0 c -0.0833,0.0014 -0.1666,0.0021 -0.2499,0.0021 l 0,0 c -1.9754,0.0035 -3.8941,-0.4046 -5.5937,-1.2936 l 0,0 c -1.589,-0.8267 -2.9799,-1.9922 -4.0761,-3.4132 l 0,0 c -1.0731,-1.3839 -1.8809,-2.9687 -2.4122,-4.6788 l 0,0 c -0.5369,-1.7101 -0.7952,-3.5112 -0.7945,-5.3599 l 0,0 c -0.0042,-2.8686 0.6286,-5.5832 1.9747,-7.931 l 0,0 c 1.2649,-2.228099 3.0051,-4.050899 5.1884,-5.149199 l 0,0 c 1.9194,-0.9751 3.9872,-1.512 6.0767,-1.5092 l 0,0 c 3.2074,-0.0231 6.274101,1.0262 8.554701,3.1444 l 0,0 c 2.1,1.9159 3.5875,4.369399 4.2973,7.113399 l 0,0 c 0.6195,2.3744 0.9583,4.5647 0.9597,6.6164 l 0,0 c -0.0014,3.7919 -0.4718,7.2471 -1.4777,10.3481 l 0,0 c -0.9856,3.0324 -2.3786,5.684 -4.2315,7.8701 l 0,0 c -1.8249,2.1588 -4.0635,3.8507 -6.610101,4.9749 l 0,0 c -2.5235,1.1193 -5.2675,1.6737 -8.1179,1.673 l 0,0 c -0.0056,-7e-4 -0.0119,-7e-4 -0.0175,-7e-4 l 0,0 0,0 m 7.0595,-22.3279 c 0.7917,-7e-4 1.463,-0.1267 2.093,-0.3647 l 0,0 c 0.3052,-0.1155 0.588,-0.2429 0.8547,-0.3829 l 0,0 c 0.0371,-0.5201 0.0588,-1.12 0.0574,-1.7913 l 0,0 c 0,-1.6639 -0.2163,-3.0898 -0.6013,-4.3043 l 0,0 c -0.3626,-1.1102 -0.8106,-1.7136 -1.337,-2.1385 l 0,0 c -0.6482,-0.4942 -1.036,-0.5978 -1.5337,-0.6118 l 0,0 c -0.4214,0.0014 -0.7035,0.0651 -0.9226,0.1498 l 0,0 c -0.2191,0.0882 -0.392,0.1974 -0.5978,0.4004 l 0,0 c -0.6678,0.6748 -0.9562,1.2257 -1.0934,1.7416 l 0,0 c -0.2408,0.9324 -0.3402,1.7283 -0.3402,2.3751 l 0,0 c 0,0.8449 0.1036,1.582 0.294,2.2449 l 0,0 c 0.1834,0.6384 0.4298,1.1284 0.742,1.5484 l 0,0 c 0.2856,0.3794 0.5831,0.6335 0.9961,0.8568 l 0,0 c 0.2751,0.1463 0.686,0.2744 1.3888,0.2765 l 0,0" />
        </g>
</svg>
