<?xml version="1.0" encoding="utf-8"?>
<svg version="1.2" baseProfile="tiny"
xmlns="http://www.w3.org/2000/svg"
xmlns:xlink="http://www.w3.org/1999/xlink" viewBox="0 0 120 120"
width="120" height='120' >
<!-- copyright Melissa Steil <mst@pyneo.org> -->
<path id="plus" fill="#EE9900"
	d="M66.13,53.869l0.002-21.736C66.133,28.745,63.387,25.999,60,26
	c-3.388,0.001-6.134,2.747-6.132,6.132l0,21.736H32.131c-3.386,0-6.132,2.746-6.132,6.132c0,3.387,2.745,6.133,6.133,6.133
	l21.735-0.001v21.736C53.868,91.255,56.612,94,60,94c3.386,0,6.131-2.745,6.13-6.133l0.002-21.734l21.735-0.002
	C91.256,66.134,94.001,63.389,94,60c0-3.389-2.744-6.132-6.132-6.132L66.13,53.869z"/>
<path id="minus" fill="#EE9900"
	d="M87.929,66.154c3.399,0,6.154-2.755,6.154-6.154l0,0c0-3.398-2.755-6.154-6.154-6.154H32.046
	c-3.399,0-6.154,2.755-6.155,6.154l0,0c0,3.399,2.756,6.154,6.155,6.154H87.929z"/>
</svg>
