<?xml version="1.0" encoding="UTF-8" standalone="no"?>
<!-- Created with Inkscape (http://www.inkscape.org/) -->

<svg xmlns:dc="http://purl.org/dc/elements/1.1/" xmlns:cc="http://creativecommons.org/ns#" xmlns:rdf="http://www.w3.org/1999/02/22-rdf-syntax-ns#" xmlns:svg="http://www.w3.org/2000/svg" xmlns="http://www.w3.org/2000/svg" xmlns:sodipodi="http://sodipodi.sourceforge.net/DTD/sodipodi-0.dtd" xmlns:inkscape="http://www.inkscape.org/namespaces/inkscape" width="560" height="560" id="svg2" version="1.1" inkscape:version="0.48.5 r10040" sodipodi:docname="Neues Dokument 1">
        <defs id="defs4" />
        <sodipodi:namedview id="base" pagecolor="#ffffff" bordercolor="#666666" borderopacity="1.0" inkscape:pageopacity="0.0" inkscape:pageshadow="2" inkscape:zoom="1.2535714" inkscape:cx="280" inkscape:cy="280" inkscape:document-units="px" inkscape:current-layer="layer1" showgrid="false" fit-margin-top="0" fit-margin-left="0" fit-margin-right="0" fit-margin-bottom="0" inkscape:window-width="1598" inkscape:window-height="879" inkscape:window-x="0" inkscape:window-y="19" inkscape:window-maximized="0" />
        <metadata id="metadata7">
                <rdf:RDF>
                        <cc:Work rdf:about="">
                                <dc:format>image/svg+xml</dc:format>
                                <dc:type rdf:resource="http://purl.org/dc/dcmitype/StillImage" />
                                <dc:title></dc:title>
                        </cc:Work>
                </rdf:RDF>
        </metadata>
        <g inkscape:label="Ebene 1" inkscape:groupmode="layer" id="layer1" transform="translate(-1.1695481e-6,-492.36217)">
                <path sodipodi:type="arc" style="fill:#000000;fill-opacity:1;fill-rule:evenodd;stroke:none" id="path3882" sodipodi:cx="-90.69503" sodipodi:cy="538.17383" sodipodi:rx="165.6496" sodipodi:ry="164.90005" d="m 74.954567,538.17383 c 0,91.07178 -74.16385088,164.90005 -165.649597,164.90005 -91.48575,0 -165.6496,-73.82827 -165.6496,-164.90005 0,-91.07179 74.16385,-164.90006 165.6496,-164.90006 91.48574612,0 165.649597,73.82827 165.649597,164.90006 z" transform="matrix(1.690315,0,0,1.6979982,433.30317,-141.45602)" />
                <g id="g3864" transform="translate(-377.82714,-44.783526)" style="fill:#6e6e6e;fill-opacity:1">
                        <path style="fill:#6e6e6e;fill-opacity:1" d="M 120.02424,480.40606 C 108.85204,477.38514 100.97755,470.50555 96.758,460.07935 L 94.5,454.5 l 0,-198.5 0,-198.5 2.40379,-5.969008 c 3.20827,-7.966664 10.66054,-15.418931 18.6272,-18.627202 L 121.5,30.5 l 134.5,0 134.5,0 5.96901,2.40379 c 7.96666,3.208271 15.41893,10.660538 18.6272,18.627202 L 417.5,57.5 l 0,198.5 0,198.5 -2.40379,5.96901 c -3.20827,7.96666 -10.66054,15.41893 -18.6272,18.6272 L 390.5,481.5 258,481.69334 c -114.29852,0.16679 -133.2522,-0.01 -137.97576,-1.28728 z m 205.41667,-69.48833 c 6.86329,-6.02604 7.34703,-2.09867 -10.56447,-85.77176 -15.09413,-70.51185 -16.05199,-75.61667 -14.90617,-79.44106 0.86781,-2.89651 3.77867,-6.73189 9.99296,-13.16684 17.47229,-18.09269 24.02276,-33.50935 24.02276,-56.53807 0,-22.65763 -7.54485,-40.55798 -23.64674,-56.1025 C 294.60788,104.71067 277.9793,98.014012 256,98.014012 c -21.9793,0 -38.60788,6.696658 -54.33925,21.883488 -16.10189,15.54452 -23.64674,33.44487 -23.64674,56.1025 0,23.02872 6.55047,38.44538 24.02276,56.53807 6.21429,6.43495 9.12515,10.27033 9.99296,13.16684 1.14582,3.82439 0.18796,8.92921 -14.90617,79.44106 -17.9115,83.67309 -17.42776,79.74572 -10.56447,85.77176 L 190.06959,414 256,414 l 65.93041,0 3.5105,-3.08227 z" id="path3878" inkscape:connector-curvature="0" transform="translate(417.57699,560.26942)" />
                        <path style="fill:#6e6e6e;fill-opacity:1" d="m 119.08137,479.42062 c -2.98025,-0.80627 -6.90473,-2.3844 -8.72106,-3.50696 C 105.2212,472.73752 99.287383,465.35537 97.303968,459.67052 95.588768,454.75443 95.5,444.73239 95.5,256 95.5,28.691675 94.508425,51.331575 104.92,40.92 115.19021,30.649786 101.55429,31.5 256,31.5 c 154.44571,0 140.80979,-0.850214 151.08,9.42 10.41157,10.411575 9.42,-12.228325 9.42,215.08 0,227.29563 0.98975,204.67532 -9.41012,215.06423 -10.32711,10.31621 3.73834,9.40779 -149.08988,9.62905 -114.58443,0.16589 -134.26776,-0.0144 -138.91863,-1.27266 z M 324.04805,412.7466 c 3.93785,-2.65372 6.93918,-7.39753 7.20887,-11.39415 0.10586,-1.56885 -6.95363,-36.15879 -15.68777,-76.86654 -12.69926,-59.18827 -15.73346,-74.79653 -15.14745,-77.9202 0.57917,-3.08724 2.57521,-5.81396 9.52139,-13.00678 17.54227,-18.16516 25.0429,-35.4047 25.0429,-57.55893 0,-43.47078 -35.51521,-78.985988 -78.98599,-78.985988 -43.47078,0 -78.98599,35.515208 -78.98599,78.985988 0,22.15423 7.50063,39.39377 25.0429,57.55893 6.94618,7.19282 8.94222,9.91954 9.52139,13.00678 0.58601,3.12367 -2.44819,18.73193 -15.14745,77.9202 -8.73414,40.70775 -15.79363,75.29769 -15.68777,76.86654 0.26969,3.99662 3.27102,8.74043 7.20887,11.39415 L 191.29577,415 256,415 l 64.70423,0 3.34382,-2.2534 z" id="path3876" inkscape:connector-curvature="0" transform="translate(417.57699,560.26942)" />
                        <path style="fill:#6e6e6e;fill-opacity:1" d="m 120.08137,479.42068 c -7.06336,-1.91098 -10.99625,-4.41991 -16.46736,-10.5051 C 94.726651,459.0307 95.5,479.32375 95.5,256 95.5,29.09445 94.423632,52.398894 105.41126,41.411263 116.25419,30.568334 102.09874,31.5 256,31.5 409.90126,31.5 395.74581,30.568334 406.58874,41.411263 417.57637,52.398894 416.5,29.09445 416.5,256 c 0,226.91007 1.07625,203.60937 -9.91126,214.57861 -10.90066,10.88254 3.64195,9.8926 -148.58874,10.11473 -113.70884,0.16593 -133.26847,-0.0146 -137.91863,-1.27266 z m 204.62008,-66.3802 c 3.25997,-1.98771 5.5153,-5.44039 6.64942,-10.17955 0.40562,-1.69497 -5.11043,-29.41996 -15.41907,-77.5 -11.62502,-54.21969 -15.87508,-75.80397 -15.41397,-78.28113 0.465,-2.49802 3.00631,-5.874 9.42526,-12.52087 17.84013,-18.47359 25.0429,-35.31615 25.0429,-58.55893 0,-44.827 -34.15899,-78.985988 -78.98599,-78.985988 -44.827,0 -78.98599,34.158988 -78.98599,78.985988 0,23.24278 7.20277,40.08534 25.0429,58.55893 6.41895,6.64687 8.96026,10.02285 9.42526,12.52087 0.46111,2.47716 -3.78895,24.06144 -15.41397,78.28113 -10.30864,48.08004 -15.82469,75.80503 -15.41907,77.5 1.13412,4.73916 3.38945,8.19184 6.64942,10.17955 3.08921,1.8836 5.49792,1.95204 68.70145,1.95204 63.20353,0 65.61224,-0.0684 68.70145,-1.95204 z" id="path3874" inkscape:connector-curvature="0" transform="translate(417.57699,560.26942)" />
                        <path style="fill:#6e6e6e;fill-opacity:1" d="m 120.08137,478.42068 c -2.98025,-0.8063 -6.90473,-2.38446 -8.72106,-3.50702 C 106.2212,471.73752 100.28738,464.35537 98.303968,458.67052 96.588887,453.75477 96.5,443.76862 96.5,256 96.5,29.83042 95.509967,52.330033 105.92,41.92 116.18701,31.652989 102.69238,32.5 256,32.5 c 153.30762,0 139.81299,-0.847011 150.08,9.42 10.41003,10.410033 9.42,-12.08958 9.42,214.08 0,226.15693 0.98821,203.67686 -9.41012,214.06423 -10.32401,10.31312 3.59969,9.40777 -148.08988,9.62911 -113.70884,0.16593 -133.26847,-0.0146 -137.91863,-1.27266 z m 203.87999,-63.9007 c 3.76917,-1.94911 6.79644,-5.90681 8.0342,-10.50349 0.87226,-3.23931 -1.08174,-13.4427 -15.05602,-78.61945 -11.63076,-54.24649 -15.88282,-75.84005 -15.42171,-78.31724 0.465,-2.49802 3.00631,-5.874 9.42526,-12.52087 17.84013,-18.47359 25.0429,-35.31615 25.0429,-58.55893 0,-27.71385 -13.57428,-52.88671 -36.38854,-67.48081 -26.40365,-16.890213 -60.79125,-16.890213 -87.1949,0 -22.81426,14.5941 -36.38854,39.76696 -36.38854,67.48081 0,23.24278 7.20277,40.08534 25.0429,58.55893 6.41895,6.64687 8.96026,10.02285 9.42526,12.52087 0.46111,2.47719 -3.79095,24.07075 -15.42171,78.31724 -13.7527,64.14331 -15.91849,75.41435 -15.0842,78.5 1.27592,4.71905 3.53713,7.83526 7.39045,10.1849 2.99979,1.82918 5.91554,1.91074 68.43295,1.91432 55.70166,0.003 65.72033,-0.2138 68.1617,-1.47628 z" id="path3872" inkscape:connector-curvature="0" transform="translate(417.57699,560.26942)" />
                        <path style="fill:#6e6e6e;fill-opacity:1" d="M 120.08137,477.42068 C 109.9436,474.67792 102.56251,468.00179 99.283631,458.60929 97.59539,453.77325 97.5,442.93751 97.5,256 97.5,64.44647 97.55729,58.335366 99.402771,53.032012 101.9883,45.601984 109.60198,37.988299 117.03201,35.402771 122.30109,33.569218 127.35636,33.5 256,33.5 c 128.64364,0 133.69891,0.06922 138.96799,1.902771 7.43003,2.585528 15.04371,10.199213 17.62924,17.629241 C 414.44271,58.335366 414.5,64.44647 414.5,256 c 0,191.55353 -0.0573,197.66463 -1.90277,202.96799 -2.43743,7.00443 -10.11731,14.90879 -17.10572,17.60572 -4.82822,1.86328 -9.32596,1.93261 -137.49151,2.11963 -113.70884,0.16593 -133.26847,-0.0146 -137.91863,-1.27266 z m 203.84917,-61.88476 c 3.96337,-2.04954 7.83255,-6.94237 9.04211,-11.43435 0.90249,-3.35161 -0.89748,-12.77522 -15.03311,-78.70453 -11.63076,-54.24649 -15.88282,-75.84005 -15.42171,-78.31724 0.465,-2.49802 3.00631,-5.874 9.42526,-12.52087 17.84013,-18.47359 25.0429,-35.31615 25.0429,-58.55893 0,-22.85684 -8.22691,-42.25104 -24.64674,-58.1025 C 296.2409,102.35639 278.16392,95.014012 256,95.014012 c -22.16392,0 -40.2409,7.342378 -56.33925,22.883488 -16.41983,15.85146 -24.64674,35.24566 -24.64674,58.1025 0,23.24278 7.20277,40.08534 25.0429,58.55893 6.41895,6.64687 8.96026,10.02285 9.42526,12.52087 0.46111,2.47719 -3.79095,24.07075 -15.42171,78.31724 -13.97428,65.17675 -15.92828,75.38014 -15.05602,78.61945 1.22163,4.53677 4.28541,8.57933 8.40686,11.09256 2.94158,1.79376 6.19899,1.88365 68.38836,1.88721 55.38152,0.003 65.72968,-0.21863 68.13088,-1.46034 z" id="path3870" inkscape:connector-curvature="0" transform="translate(417.57699,560.26942)" />
                        <path style="fill:#6e6e6e;fill-opacity:1" d="m 121.08137,477.42075 c -2.98025,-0.80634 -6.90473,-2.38453 -8.72106,-3.50709 C 107.2212,470.73752 101.28738,463.35537 99.303968,457.67052 97.589006,452.75511 97.5,442.80484 97.5,256 97.5,30.969159 96.511523,53.328477 106.92,42.92 117.18376,32.656237 103.83045,33.5 256,33.5 c 152.16955,0 138.81624,-0.843763 149.08,9.42 10.40848,10.408477 9.42,-11.950841 9.42,213.08 0,225.01824 0.98665,202.67842 -9.41012,213.06423 -10.32087,10.30998 3.46106,9.40775 -147.08988,9.62918 -112.83326,0.16595 -132.26919,-0.0147 -136.91863,-1.27266 z M 325.75914,415.0054 c 3.90016,-2.37796 6.90274,-7.018 7.71449,-11.9216 0.42674,-2.57789 -3.91576,-24.60442 -15.4712,-78.4748 -13.96083,-65.08405 -15.92271,-75.32051 -14.98198,-78.17096 0.6152,-1.86406 4.33051,-6.44374 8.60667,-10.60899 17.52987,-17.07523 25.35887,-35.54614 25.35887,-59.82905 0,-23.6876 -8.00776,-43.10139 -24.18643,-58.63695 C 296.8646,102.06151 278.95354,95.014012 256,95.014012 c -22.95354,0 -40.8646,7.047498 -56.79956,22.349038 -16.17867,15.53556 -24.18643,34.94935 -24.18643,58.63695 0,24.28905 6.91842,40.77882 24.95497,59.47913 4.78537,4.96148 9.00414,10.24071 9.37505,11.73164 0.45464,1.82749 -4.55293,27.07994 -15.36827,77.5 -11.53933,53.79521 -15.87611,75.79523 -15.44939,78.37303 0.81175,4.9036 3.81433,9.54364 7.71449,11.9216 3.16584,1.93024 5.16288,1.98712 69.75914,1.98712 64.59626,0 66.5933,-0.0569 69.75914,-1.98712 z" id="path3868" inkscape:connector-curvature="0" transform="translate(417.57699,560.26942)" />
                        <path style="fill:#6e6e6e;fill-opacity:1" d="m 120.14565,476.43713 c -2.94489,-0.79725 -6.62719,-2.35589 -8.18289,-3.46365 C 106.8276,469.31692 101.29441,462.11945 99.882775,457.26005 97.774244,450.00167 97.824624,61.853142 99.935051,54.5 101.95505,47.461918 111.46192,37.955053 118.5,35.935051 c 7.48314,-2.147737 267.51686,-2.147737 275,0 7.03808,2.020002 16.54495,11.526867 18.56495,18.564949 2.15557,7.510443 2.15557,395.48956 0,403 -1.76188,6.13872 -11.38221,16.28245 -17.56495,18.52056 -6.03414,2.18433 -266.36456,2.5796 -274.35435,0.41657 z m 204.93342,-60.47747 c 2.19966,-1.12218 4.88725,-3.48468 5.97241,-5.25 4.75902,-7.74187 5.22812,-4.43766 -12.11194,-85.31262 -11.11558,-51.84362 -15.87253,-75.89578 -15.45462,-78.14179 0.43132,-2.31812 2.75662,-5.31669 8.14243,-10.5 C 329.06783,219.9705 337.98599,199.41463 337.98599,176 337.98599,130.0897 301.9103,94.014012 256,94.014012 c -45.9103,0 -81.98599,36.075688 -81.98599,81.985988 0,23.24101 8.01468,42.0363 25.60634,60.04967 5.35349,5.48182 8.55756,9.60833 8.9293,11.5 0.37583,1.91244 -5.07121,29.29817 -15.48388,77.84737 -17.34455,80.86914 -16.87599,77.57129 -12.1205,85.30728 1.08337,1.76237 3.67639,4.10498 5.76225,5.2058 3.6787,1.94144 5.75134,2.00281 69.08232,2.04568 63.79195,0.0432 65.38159,-0.003 69.28923,-1.99614 z" id="path3866" inkscape:connector-curvature="0" transform="translate(417.57699,560.26942)" />
                </g>
                <g id="g3050" transform="translate(-215.81682,383.92948)" style="fill:#00e2ff;fill-opacity:1;stroke:none">
                        <path style="fill:#00e2ff;fill-opacity:1;stroke:none" d="m 325.5,303.33837 c -6.80313,-3.58652 -11.43347,-10.48382 -11.47804,-17.09755 -0.0121,-1.79255 2.05419,-8.09255 4.5917,-14 9.42525,-21.94241 16.35198,-46.50735 20.15909,-71.49207 2.45382,-16.10362 2.41074,-61.72137 -0.073,-77.24875 -4.07646,-25.484853 -11.04286,-50.023557 -20.1188,-70.867172 -2.51954,-5.786332 -4.57111,-12.008355 -4.55903,-13.826716 0.0712,-10.711075 12.43139,-21.373379 22.31172,-19.24675 8.58799,1.848466 12.62475,6.171629 18.61959,19.940638 10.11384,23.229563 17.86737,50.635016 22.20914,78.5 1.97314,12.66336 2.25941,18.29995 2.26007,44.5 6.5e-4,25.71242 -0.30356,31.93121 -2.12854,43.51255 -4.14699,26.31686 -10.42065,49.65015 -19.48981,72.48745 -6.25638,15.75438 -9.5281,21.25393 -14.31193,24.05744 -4.94901,2.90031 -13.28565,3.26216 -17.9922,0.78093 z m -65.59272,-28.66514 c -5.84806,-3.08742 -10.05696,-9.15799 -10.6446,-15.35291 -0.38232,-4.03046 0.19278,-6.29506 3.50969,-13.82032 7.91055,-17.94713 13.78125,-39.5173 16.28364,-59.82958 1.74346,-14.15185 0.6701,-47.19664 -1.94697,-59.94038 -3.30722,-16.10435 -6.86447,-27.969715 -12.73507,-42.478358 -6.20606,-15.337676 -6.54059,-19.009955 -2.3495,-25.79128 5.62903,-9.107959 16.63211,-11.949213 26.17041,-6.757817 4.55018,2.476519 5.34349,3.490051 9.48382,12.116569 9.30008,19.377066 17.70723,49.821576 20.26678,73.391436 1.35466,12.47443 1.35512,40.0979 8.7e-4,52.57882 -3.0482,28.09274 -16.89736,73.09587 -25.25008,82.05065 -5.86711,6.29001 -15.17106,7.85496 -22.78899,3.83317 z m -68.66973,-35.59677 c -4.55138,-2.1247 -12.29238,-7.90157 -57.45643,-42.87794 C 103.38847,172.66156 87.002981,161 84.324178,161 c -1.434539,0 -1.550412,1.14964 -0.982701,9.75 0.35398,5.3625 1.546957,13.7772 2.651061,18.69934 2.766286,12.33221 2.67745,22.80066 -0.242538,28.5807 -3.18812,6.3108 -7.940013,9.27017 -13.981921,8.70761 C 59.954377,225.63768 52.365309,214.8359 47.362245,192 44.48259,178.85615 44.722999,141.31682 47.774322,127.65493 53.388004,102.52043 63.01034,93.756207 75.649511,102.26563 78.31728,104.06173 100.525,121.07545 125,140.07389 186.13772,187.53138 185.43846,187 186.75275,187 c 2.51639,0 3.74387,-8.43268 3.71184,-25.5 -0.0364,-19.3961 -1.33635,-26.28115 -8.514,-45.09356 -6.71717,-17.605512 -6.28911,-27.389984 1.49738,-34.226611 9.73542,-8.547817 22.74913,-1.838536 31.89437,16.443305 3.7328,7.462086 10.18896,26.724536 12.10373,36.112476 6.27156,30.74874 2.31244,63.4561 -11.01711,91.01523 -3.53362,7.30582 -5.30676,9.80168 -8.43336,11.87077 -5.2732,3.48964 -11.28187,4.01128 -16.75805,1.45485 z" id="path3064" inkscape:connector-curvature="0" transform="translate(174.57143,229.86218)" />
                        <path style="fill:#00e2ff;fill-opacity:1;stroke:none" d="M 323.83989,301.11342 C 318.78152,297.90549 315,291.5152 315,286.1751 c 0,-1.7564 2.07615,-8.02683 4.61366,-13.93428 9.42525,-21.94241 16.35198,-46.50735 20.15909,-71.49207 2.45382,-16.10362 2.41074,-61.72137 -0.073,-77.24875 -4.07646,-25.484853 -11.04286,-50.023557 -20.1188,-70.867172 -2.51954,-5.786332 -4.57111,-12.008355 -4.55903,-13.826716 0.053,-7.980622 7.47734,-16.739194 15.45837,-18.236445 5.17895,-0.971576 11.23749,1.075477 15.53568,5.249178 6.43198,6.245687 17.81027,35.797827 24.51879,63.681155 6.58068,27.35195 7.88684,39.44037 7.88768,73 8.2e-4,32.47571 -0.9938,42.38102 -6.92974,69.01255 -4.57056,20.5058 -17.24302,56.36942 -22.86714,64.71505 -5.60974,8.3243 -16.10237,10.39263 -24.78571,4.88582 z M 261.5,274.57872 c -3.76489,-1.6854 -9.04407,-7.19477 -10.43867,-10.89382 -1.84893,-4.90415 -1.17044,-9.3472 2.80832,-18.39004 7.82376,-17.7817 13.69666,-39.41524 16.18636,-59.62444 1.74346,-14.15185 0.6701,-47.19664 -1.94697,-59.94038 -3.30722,-16.10435 -6.86447,-27.969715 -12.73507,-42.478358 -6.31023,-15.595142 -6.60126,-19.430194 -1.98051,-26.097951 5.30255,-7.651577 15.38456,-10.349208 23.39638,-6.260141 5.32665,2.718616 6.77785,4.680247 11.63897,15.73277 8.92776,20.29866 16.08556,47.19712 18.51667,69.58423 1.35466,12.47443 1.35512,40.0979 8.7e-4,52.57882 -2.91057,26.82432 -15.21301,67.94575 -24.03349,80.33297 -4.29513,6.03194 -14.38423,8.60281 -21.41286,5.45634 z m -70,-36.46698 c -4.23147,-1.95106 -9.88024,-6.17121 -53,-39.59587 -42.430692,-32.89052 -51.834581,-39.36893 -55.24643,-38.05968 -1.319126,0.5062 -1.456008,2.05763 -0.91051,10.31979 0.353109,5.34821 1.545374,13.75122 2.649478,18.67336 3.931773,17.528 1.969965,30.16335 -5.379047,34.64464 C 70.70977,229.5233 58.158494,222.0184 52.943732,208.14709 47.654496,194.07768 46.567278,186.0425 46.564392,161 c -0.0024,-20.59476 0.269982,-24.71712 2.203038,-33.34507 5.34204,-23.84352 14.444157,-32.750892 25.677282,-25.12789 2.048093,1.38988 23.598389,17.95546 47.889548,36.81241 63.28245,49.12546 62.81889,48.7777 64.5703,48.44045 3.31842,-0.639 4.51166,-7.43134 4.52888,-25.7799 0.0187,-19.94788 -1.2026,-26.51225 -8.48285,-45.59356 -4.59089,-12.03258 -5.84811,-20.156912 -3.99032,-25.78605 2.97815,-9.023881 10.64936,-13.186899 18.66129,-10.127115 5.20309,1.987078 11.73961,8.948688 16.09506,17.141765 4.05025,7.61896 10.62435,26.77947 12.72945,37.10057 6.07966,29.80785 2.43832,62.16638 -10.03319,89.15933 -6.69998,14.50122 -14.5636,18.98868 -24.91288,14.2168 z" id="path3062" inkscape:connector-curvature="0" transform="translate(174.57143,229.86218)" />
                        <path style="fill:#00e2ff;fill-opacity:1;stroke:none" d="m 323.98983,300.75 c -5.12027,-3.48482 -7.26963,-7.07893 -7.75845,-12.97344 -0.38158,-4.60134 0.15425,-6.69948 4.03286,-15.79147 15.15355,-35.52188 22.75882,-72.17133 22.71843,-109.47896 -0.0272,-25.08675 -2.35392,-42.95093 -8.98786,-69.00613 -4.02776,-15.819227 -8.40796,-28.659216 -14.38306,-42.162002 -4.16777,-9.418516 -4.58274,-14.717906 -1.62659,-20.772274 4.13836,-8.475587 14.64325,-11.860389 23.50114,-7.572354 5.46496,2.645542 6.3089,3.822325 11.95871,16.675276 16.46201,37.449985 24.6459,78.237214 24.6459,122.831354 0,42.68976 -6.65242,77.61196 -22.28763,117 -8.13044,20.48211 -10.95871,23.5 -22.02343,23.5 -5.07803,0 -7.20096,-0.48791 -9.79002,-2.25 z m -63.8102,-27.43176 c -5.34371,-2.63327 -8.50251,-7.62208 -8.96959,-14.16601 -0.35,-4.90359 0.12331,-6.84729 3.57351,-14.67495 7.55867,-17.1488 13.80042,-40.45535 16.28318,-60.80105 1.54249,-12.64032 0.70218,-42.24309 -1.52366,-53.67623 -3.18111,-16.33992 -7.86425,-32.604653 -13.18254,-45.783507 -5.79761,-14.366606 -6.489,-19.036162 -3.69144,-24.931579 0.918,-1.934539 3.46052,-4.815047 5.65004,-6.401129 C 261.64742,50.472782 263.27781,50 268.26388,50 c 9.46084,0 12.98436,2.544098 17.959,12.966987 5.6017,11.736701 14.20638,38.296573 16.6953,51.533013 3.18352,16.93044 4.06541,27.34283 4.06541,48 0,30.56817 -2.78937,48.76047 -11.49952,75 -10.64155,32.05789 -14.53736,37.52942 -26.68441,37.47723 -2.91481,-0.0125 -6.79383,-0.75907 -8.62003,-1.65899 z m -68.9429,-35.75927 c -3.54136,-1.59916 -12.54888,-8.35779 -56.45561,-42.36045 -41.747861,-32.33077 -51.323439,-38.43956 -53.079809,-33.86253 -1.000586,2.60748 0.191472,16.30013 2.230188,25.61719 2.417999,11.05041 2.745488,25.4908 0.689681,30.41104 -0.758351,1.81499 -2.670851,4.31949 -4.25,5.56557 -2.387589,1.88399 -3.800193,2.19913 -8.386918,1.87103 C 60.694653,223.99325 54.371799,215.3771 49.381459,194 47.268483,184.94865 46.384284,149.92975 47.953868,137.45993 50.057107,120.7504 54.332173,108.37696 59.730779,103.3737 61.690173,101.5578 63.425038,101 67.11349,101 c 5.659055,0 0.941385,-3.392009 71.38651,51.32696 35.61448,27.66391 46.55098,35.66799 48.44044,35.45201 3.89836,-0.44563 5.34825,-7.33986 5.4214,-25.77897 0.071,-17.90391 -1.56074,-26.28891 -8.99293,-46.21084 C 179.93286,106.57883 179,102.74947 179,97.85488 179,86.937891 184.2789,80 192.5854,80 c 7.21276,0 15.6093,7.363591 21.27551,18.658183 3.88695,7.747957 10.92799,29.947287 12.66147,39.919707 2.32398,13.36943 2.31844,37.50302 -0.0117,50.92211 -3.33545,19.20867 -12.56916,42.26925 -18.66238,46.60801 -3.96131,2.8207 -12.01956,3.52456 -16.61159,1.45096 z" id="path3060" inkscape:connector-curvature="0" transform="translate(174.57143,229.86218)" />
                        <path style="fill:#00e2ff;fill-opacity:1;stroke:none" d="M 324.33684,300.48564 C 319.67538,297.69152 316,291.38258 316,286.1751 c 0,-1.7564 2.07615,-8.02683 4.61366,-13.93428 9.42525,-21.94241 16.35198,-46.50735 20.15909,-71.49207 2.45382,-16.10362 2.41074,-61.72137 -0.073,-77.24875 -4.07646,-25.484853 -11.04286,-50.023557 -20.1188,-70.867172 -5.03894,-11.572331 -5.47212,-15.073302 -2.63753,-21.316688 4.79411,-10.559364 19.05485,-13.151538 27.54007,-5.005959 5.92867,5.691353 17.58672,36.320502 24.05127,63.189819 6.58068,27.35195 7.88684,39.44037 7.88768,73 8.2e-4,32.47571 -0.9938,42.38102 -6.92974,69.01255 -4.48976,20.14326 -17.27782,56.40572 -22.93809,65.04439 -4.43475,6.76829 -15.38835,8.62175 -23.21781,3.9287 z M 261.5,273.58264 c -3.72671,-1.66345 -8.03106,-6.17824 -9.43638,-9.89774 -1.85178,-4.90113 -1.17372,-9.34495 2.80603,-18.39004 7.82376,-17.7817 13.69666,-39.41524 16.18636,-59.62444 1.74346,-14.15185 0.6701,-47.19664 -1.94697,-59.94038 -3.29242,-16.0323 -6.85655,-27.949055 -12.6399,-42.261865 -6.87999,-17.026813 -6.97664,-21.126568 -0.65552,-27.807451 3.88492,-4.106028 7.43959,-5.662943 12.88672,-5.644274 8.15389,0.02795 12.0787,3.025171 17.00172,12.98355 8.92747,18.058638 17.69916,49.78158 20.24342,73.21059 1.35466,12.47443 1.35512,40.0979 8.7e-4,52.57882 -2.52466,23.26772 -11.37304,55.24372 -20.26277,73.22493 -3.42362,6.92494 -4.9102,8.86999 -8.18358,10.70744 -4.57312,2.56703 -11.35955,2.93217 -16,0.86086 z m -70,-36.41579 c -4.25468,-2.02038 -9.55342,-5.98726 -54.64478,-40.90959 -44.352118,-34.34981 -51.189356,-38.88469 -54.492814,-36.14307 -1.39203,1.15529 -1.542022,2.77532 -1.006558,10.8717 0.346076,5.23276 1.532586,13.54131 2.63669,18.46345 2.696488,12.02105 2.66105,22.56908 -0.09495,28.26221 -6.372511,13.16386 -23.474632,7.66901 -29.979203,-9.6322 -5.262214,-13.99673 -6.35111,-22.0648 -6.353993,-47.07935 -0.0024,-20.59476 0.269982,-24.71712 2.203038,-33.34507 5.263597,-23.4934 13.600556,-31.644757 24.677282,-24.12789 3.098807,2.10291 70.485278,54.18013 101.887818,78.74035 6.90793,5.40275 9.33723,6.78133 11.14873,6.32667 3.69564,-0.92755 5.02605,-8.30606 4.97546,-27.59406 -0.0495,-18.85468 -1.41286,-26.00232 -8.50613,-44.59356 -2.28867,-5.99854 -4.39538,-13.42833 -4.68157,-16.510646 -0.91068,-9.808032 2.88718,-17.05295 9.93404,-18.950473 12.04475,-3.243314 23.04197,9.958732 32.11582,38.554679 10.52506,33.16941 9.10384,68.79044 -3.99289,100.0768 -4.03914,9.64898 -6.71311,13.91516 -10.46175,16.69121 -3.81023,2.82166 -10.49185,3.21254 -15.36424,0.89884 z" id="path3058" inkscape:connector-curvature="0" transform="translate(174.57143,229.86218)" />
                        <path style="fill:#00e2ff;fill-opacity:1;stroke:none" d="m 326.4214,301.15963 c -4.8982,-2.29186 -8.04669,-6.05434 -9.46073,-11.30569 -1.24316,-4.61676 -0.80512,-6.31736 5.46171,-21.20355 9.90923,-23.53832 16.09489,-47.35417 19.12912,-73.65039 2.07353,-17.97024 1.53301,-58.78405 -0.98428,-74.32308 C 336.77968,97.296821 328.78075,69.553608 320.76628,52 316.23526,42.075991 315.731,39.714074 317.07544,34.712534 c 1.41745,-5.273132 7.29242,-11.054976 12.60262,-12.402848 5.36907,-1.362816 11.95637,0.660892 15.95878,4.902762 1.78349,1.890184 5.25016,8.38813 8.15597,15.287552 22.27546,52.889939 29.51105,113.78095 20.14146,169.5 -4.89855,29.13065 -18.24269,71.34852 -26.28487,83.15945 -4.96397,7.29019 -13.3843,9.67023 -21.228,6.00018 z m -63.0387,-27.24402 c -4.58898,-1.33081 -11.01021,-8.75136 -11.84415,-13.68745 -0.54231,-3.2099 -0.1254,-5.38639 1.99099,-10.39411 5.26513,-12.45815 12.30494,-33.57506 14.29295,-42.87376 3.67053,-17.1685 4.46738,-27.70712 3.875,-51.248 C 270.94513,125.81394 268.032,111.51468 257.18974,84.5 250.7018,68.334586 250.24978,64.243149 254.27912,58.154409 c 2.86277,-4.325934 9.6113,-8.16744 14.2866,-8.132447 4.1027,0.03071 10.69675,3.224963 13.1834,6.38623 1.15056,1.462699 4.12203,7.481732 6.60327,13.37563 8.71286,20.696432 15.3433,46.901418 17.74188,70.119838 1.47021,14.23176 0.6433,45.07506 -1.55757,58.09634 -3.62049,21.42042 -10.75615,45.60128 -18.43,62.45434 -3.81902,8.38721 -5.39866,10.27339 -10.6067,12.66493 -4.35138,1.99816 -7.30398,2.1922 -12.1173,0.79634 z M 193.75908,237.57707 C 188.21033,235.5967 194.06793,239.92175 132.5,192.3454 99.760098,167.04579 87.704928,158.78136 84.142562,159.19394 L 81.5,159.5 81.568754,170 c 0.04576,6.98797 0.834555,14.01203 2.35829,21 3.871215,17.7537 1.851329,28.36547 -6.149204,32.30576 -5.225521,2.57359 -9.710718,1.4592 -15.661785,-3.89132 -5.831581,-5.2431 -8.334087,-10.66036 -11.91654,-25.79617 -2.396889,-10.12682 -2.634584,-12.99091 -2.665534,-32.11827 -0.02956,-18.26675 0.269456,-22.4317 2.297374,-32 C 54.687739,106.58619 62.129555,97.595002 72,102.71588 c 2.889814,1.49927 34.73844,25.9416 102.90001,78.97096 11.01974,8.57331 13.3909,9.10468 15.89993,3.56316 1.41419,-3.12344 1.69368,-7.0081 1.67279,-23.25 -0.0281,-21.86624 -0.69087,-25.74668 -7.46929,-43.73446 -5.36484,-14.23655 -6.59438,-20.540496 -5.0818,-26.054705 1.7776,-6.480379 5.69371,-10.300439 11.19509,-10.920524 10.83567,-1.221337 19.91282,9.513046 28.21598,33.367409 12.86932,36.97258 11.48199,74.76087 -3.97757,108.34228 -4.03151,8.75727 -8.35105,13.62635 -13.31078,15.0042 -4.26099,1.18373 -3.68926,1.2132 -8.28528,-0.42713 z" id="path3056" inkscape:connector-curvature="0" transform="translate(174.57143,229.86218)" />
                        <path style="fill:#00e2ff;fill-opacity:1;stroke:none" d="m 324.98983,299.75 c -4.7716,-3.24752 -7.14056,-6.90762 -7.70351,-11.90212 -0.41119,-3.64805 0.2951,-6.2173 4.22362,-15.36423 9.53164,-22.19286 16.44095,-46.6534 20.26281,-71.7349 2.45382,-16.10362 2.41074,-61.72137 -0.073,-77.24875 -4.07646,-25.484853 -11.04286,-50.023557 -20.1188,-70.867172 -5.02314,-11.53603 -5.46991,-15.078778 -2.67711,-21.228291 4.36116,-9.602884 18.1543,-12.042603 26.03726,-4.605447 5.4302,5.123118 17.38378,36.890122 23.59366,62.70091 6.52059,27.1022 7.87222,39.494 7.90791,72.5 0.0341,31.57078 -0.76892,40.20705 -6.08702,65.46098 -4.26678,20.26157 -12.36488,45.00116 -20.37797,62.25441 -4.63536,9.98055 -7.63988,12.27524 -16.07984,12.28087 -4.16774,0.003 -6.44857,-0.57235 -8.90805,-2.24626 z M 261.5,272.58836 c -5.80016,-2.57791 -9.5,-8.46205 -9.5,-15.1086 0,-1.86453 1.74134,-7.34773 3.86965,-12.1849 7.82376,-17.7817 13.69666,-39.41524 16.18636,-59.62444 1.74346,-14.15185 0.6701,-47.19664 -1.94697,-59.94038 -3.30722,-16.10435 -6.86447,-27.969715 -12.73507,-42.478358 -4.63961,-11.46635 -5.48368,-14.476956 -5.07911,-18.115918 1.28073,-11.519461 13.8993,-17.648495 24.8418,-12.066047 3.51387,1.792645 4.59631,3.231746 8.08575,10.75 9.08023,19.563997 17.23784,49.505413 19.72307,72.390873 1.35466,12.47443 1.35512,40.0979 8.7e-4,52.57882 -2.48577,22.90925 -11.0353,54.04012 -19.99889,72.82067 -3.37195,7.06492 -4.61243,8.68851 -7.9324,10.38223 -4.50372,2.29763 -11.1151,2.55162 -15.51506,0.59605 z m -70,-36.47662 c -4.23147,-1.95106 -9.88024,-6.17121 -53,-39.59587 -43.269954,-33.54108 -51.614942,-39.24894 -55.554547,-37.99856 -1.067443,0.3388 -2.229111,1.76469 -2.581485,3.16866 -0.939181,3.742 0.374578,17.50118 2.650912,27.76337 2.309343,10.41101 2.57498,22.20316 0.6063,26.91488 -2.271069,5.43543 -6.271579,7.91326 -11.910549,7.37714 -11.794739,-1.12137 -19.229236,-14.65452 -22.802821,-41.5084 -1.716752,-12.90061 -0.612668,-43.24294 2.004389,-55.08446 2.454912,-11.10784 6.459539,-20.50915 9.88339,-23.20235 3.496374,-2.75025 9.091293,-2.51213 13.649123,0.58089 3.090197,2.09707 70.236168,53.98725 101.776648,78.65265 12.18204,9.52665 13.73978,9.2115 16.40671,-3.31922 1.18766,-5.58026 1.44056,-10.86745 1.04565,-21.86047 -0.59422,-16.54132 -2.36088,-24.9437 -8.75038,-41.61769 C 179.56031,102.38699 178.80112,94.540543 182.1772,88 c 1.90441,-3.689445 3.09894,-4.74557 6.63175,-5.863345 11.95439,-3.782354 22.37456,8.573512 31.50993,37.363345 10.52506,33.16941 9.10384,68.79044 -3.99289,100.0768 -4.52748,10.81555 -7.04087,14.50871 -11.34592,16.67165 -4.43505,2.22824 -8.43902,2.18764 -13.48007,-0.13671 z" id="path3054" inkscape:connector-curvature="0" transform="translate(174.57143,229.86218)" />
                        <path style="fill:#00e2ff;fill-opacity:1;stroke:none" d="m 325.24086,299.0054 c -8.90388,-5.42876 -9.09841,-12.18536 -0.92145,-32.0054 15.16153,-36.74986 21.38216,-70.81613 20.36035,-111.5 -0.56942,-22.67148 -1.8235,-33.32978 -6.29492,-53.5 -3.02529,-13.646814 -11.74168,-40.318331 -16.78956,-51.374844 -4.11684,-9.017236 -4.52239,-13.887541 -1.62873,-19.559597 2.18871,-4.290227 8.59776,-8.081031 13.59917,-8.043597 3.35333,0.0251 10.38243,2.977205 12.07085,5.06956 1.93039,2.392224 10.89558,23.827689 14.80927,35.408478 4.92882,14.584593 9.93861,35.666627 12.71337,53.5 1.96762,12.64585 2.26016,18.40012 2.28769,45 0.0338,32.66037 -0.7313,41.00849 -6.09121,66.46098 -6.44172,30.58967 -20.66588,67.57959 -27.30797,71.01434 -4.2548,2.20025 -12.82023,1.96076 -16.80686,-0.46992 z m -65,-28 c -7.94358,-4.84326 -9.17953,-12.77005 -3.87361,-24.8434 7.68983,-17.49778 14.24492,-41.65504 16.69133,-61.51198 1.71594,-13.92789 0.66225,-45.12969 -1.95597,-57.91998 -3.28677,-16.05623 -6.9608,-28.454115 -12.68644,-42.80998 -5.93981,-14.892872 -6.57871,-19.501086 -3.42157,-24.6792 4.27192,-7.006505 13.94286,-9.354061 21.87152,-5.309163 3.2412,1.653539 4.40435,3.273506 8.07758,11.25 9.10383,19.769143 16.50649,47.050793 19.00178,70.028893 1.35579,12.48486 1.35626,42.08733 8.7e-4,54.57882 -2.51411,23.17047 -10.42124,51.95216 -19.43176,70.73093 -3.6318,7.56902 -4.91177,9.29864 -7.95531,10.75 -4.91789,2.34518 -12.23226,2.22643 -16.31842,-0.26494 z M 190.2325,234.53599 C 185.62361,231.90089 180.42793,227.98039 137,194.36845 92.496845,159.92432 86.191771,155.75663 81.988971,158.0059 c -1.080946,0.57851 -2.257355,2.21525 -2.614243,3.6372 -0.926492,3.69144 0.261863,15.77084 2.609907,26.52919 2.426805,11.11922 2.671619,24.65797 0.521076,28.81667 C 80.382143,221.09548 77.189012,223 72.427532,223 63.133186,223 56.0864,213.44392 51.779946,195 49.808485,186.55652 49.5615,182.7753 49.559097,161 c -0.0024,-21.52884 0.261091,-25.67467 2.172522,-34.18625 2.361268,-10.51469 7.11177,-21.12438 10.198028,-22.7761 3.361187,-1.79885 8.585796,-1.17708 12.515065,1.48939 2.048093,1.38988 23.598389,17.95546 47.889548,36.81241 C 182.62049,189.13898 185.06165,191 186.16394,191 c 5.91605,0 8.34765,-8.64468 8.29786,-29.5 -0.0437,-18.2985 -1.52758,-25.98213 -8.55341,-44.28966 -5.22783,-13.62237 -6.19671,-22.764691 -3.06346,-28.906386 3.20577,-6.283818 9.1828,-7.860942 16.20831,-4.276792 6.74354,3.440296 13.08568,13.836256 19.25686,31.565578 6.61635,19.0083 9.286,39.81432 7.66325,59.72385 -1.57171,19.28335 -4.98115,32.517 -12.46944,48.39988 -3.28686,6.97151 -5.15625,9.71088 -7.6746,11.24626 -4.51321,2.75159 -10.31547,2.59284 -15.59681,-0.42674 z" id="path3052" inkscape:connector-curvature="0" transform="translate(174.57143,229.86218)" />
                </g>
        </g>
</svg>
